<svg width="48" height="48" viewBox="0 0 48 48" fill="none" xmlns="http://www.w3.org/2000/svg">
<circle cx="24" cy="24" r="23.5" fill="#F8F8F8" stroke="#ECECEC"/>
<path d="M18.7913 14.267L20.2142 13.8385C20.8619 13.6431 21.5586 13.69 22.1742 13.9706C22.7898 14.2512 23.2822 14.7463 23.5596 15.3633L24.445 17.333C24.6836 17.8637 24.7501 18.4557 24.6351 19.026C24.5201 19.5963 24.2295 20.1163 23.8039 20.513L22.2568 21.9556C22.2376 21.9735 22.2219 21.9947 22.2105 22.0182C22.0485 22.349 22.2945 23.2327 23.065 24.5682C23.9342 26.0733 24.6053 26.6682 24.9165 26.5765L26.947 25.955C27.5031 25.7852 28.0984 25.7937 28.6495 25.9792C29.2005 26.1647 29.6797 26.518 30.0199 26.9896L31.2782 28.7322C31.6732 29.2793 31.8562 29.9513 31.7932 30.6232C31.7301 31.2951 31.4253 31.9212 30.9353 32.3853L29.8528 33.4096C29.4763 33.7662 29.0192 34.0264 28.5203 34.168C28.0215 34.3097 27.4959 34.3286 26.9882 34.223C23.9736 33.5956 21.2728 31.1682 18.8625 26.9939C16.4513 22.817 15.6996 19.2599 16.6682 16.3345C16.8303 15.8447 17.108 15.4011 17.4776 15.0413C17.8473 14.6815 18.2974 14.4159 18.7913 14.267ZM19.1642 15.4979C18.8678 15.5872 18.5972 15.7465 18.3754 15.9623C18.1536 16.1782 17.9869 16.4443 17.8896 16.7382C17.0548 19.259 17.731 22.4613 19.9768 26.351C22.2208 30.2382 24.6533 32.4239 27.2513 32.9639C27.5559 33.0271 27.8713 33.0157 28.1706 32.9306C28.4699 32.8455 28.7441 32.6893 28.9699 32.4753L30.0516 31.4519C30.3155 31.2021 30.4798 30.8649 30.5138 30.5031C30.5479 30.1413 30.4494 29.7794 30.2368 29.4847L28.9785 27.7413C28.7953 27.4874 28.5374 27.2972 28.2407 27.1973C27.9441 27.0974 27.6236 27.0928 27.3242 27.1842L25.2885 27.8073C24.1622 28.1425 23.1028 27.2039 21.9525 25.2102C20.9779 23.5233 20.6402 22.3045 21.0568 21.4533C21.1373 21.2887 21.247 21.1405 21.3808 21.0153L22.9279 19.5727C23.1571 19.3591 23.3137 19.0791 23.3757 18.7719C23.4376 18.4648 23.4018 18.1459 23.2733 17.8602L22.387 15.8913C22.2377 15.559 21.9725 15.2923 21.6409 15.1412C21.3094 14.9901 20.9341 14.9649 20.5853 15.0702L19.1642 15.4979Z" fill="#858585"/>
</svg>
