<svg width="48" height="38" viewBox="0 0 48 38" fill="none" xmlns="http://www.w3.org/2000/svg">
<circle cx="32" cy="21.5" r="16" fill="#FEF4F1"/>
<path d="M4.70313 15.793V18.617C4.70295 19.3587 4.84888 20.0931 5.13257 20.7783C5.41626 21.4636 5.83217 22.0862 6.35652 22.6107C6.88088 23.1352 7.50343 23.5512 8.1886 23.8351C8.87377 24.1189 9.60815 24.265 10.3498 24.265H27.2898M4.70313 8.73438H21.6431C22.3849 8.7342 23.1194 8.88017 23.8047 9.16395C24.4901 9.44772 25.1128 9.86375 25.6373 10.3882C26.1618 10.9127 26.5778 11.5354 26.8616 12.2208C27.1453 12.9061 27.2913 13.6406 27.2911 14.3824V17.205" stroke="black" stroke-width="1.5" stroke-linecap="round" stroke-linejoin="round"/>
<path d="M23.0565 20.0293L27.2925 24.264L23.0565 28.5M8.93912 12.9707L4.70312 8.73467L8.93912 4.5" stroke="black" stroke-width="1.5" stroke-linecap="round" stroke-linejoin="round"/>
</svg>
