<svg width="48" height="38" viewBox="0 0 48 38" fill="none" xmlns="http://www.w3.org/2000/svg">
<circle cx="32" cy="21.5" r="16" fill="#FEF4F1"/>
<path d="M4 16.5H16V18.5H4V16.5ZM2 11.5H12V13.5H2V11.5Z" fill="black"/>
<path d="M29.9184 17.106L26.9184 10.106C26.8414 9.92608 26.7132 9.77273 26.5499 9.665C26.3865 9.55727 26.1951 9.49989 25.9994 9.5H22.9994V7.5C22.9994 7.23478 22.894 6.98043 22.7065 6.79289C22.5189 6.60536 22.2646 6.5 21.9994 6.5H5.99936V8.5H20.9994V21.056C20.5437 21.3206 20.1449 21.6728 19.826 22.0922C19.5071 22.5117 19.2744 22.9902 19.1414 23.5H12.8574C12.614 22.5573 12.0351 21.7358 11.2294 21.1894C10.4236 20.643 9.44617 20.4092 8.48036 20.5319C7.51454 20.6546 6.62662 21.1253 5.98304 21.8558C5.33945 22.5863 4.98438 23.5264 4.98438 24.5C4.98437 25.4736 5.33945 26.4137 5.98304 27.1442C6.62662 27.8747 7.51454 28.3454 8.48036 28.4681C9.44617 28.5908 10.4236 28.357 11.2294 27.8106C12.0351 27.2642 12.614 26.4427 12.8574 25.5H19.1414C19.3589 26.3582 19.8564 27.1194 20.5551 27.6632C21.2539 28.2069 22.114 28.5021 22.9994 28.5021C23.8847 28.5021 24.7448 28.2069 25.4436 27.6632C26.1423 27.1194 26.6398 26.3582 26.8574 25.5H28.9994C29.2646 25.5 29.5189 25.3946 29.7065 25.2071C29.894 25.0196 29.9994 24.7652 29.9994 24.5V17.5C29.9994 17.3645 29.9718 17.2305 29.9184 17.106ZM8.99936 26.5C8.6038 26.5 8.21712 26.3827 7.88822 26.1629C7.55932 25.9432 7.30297 25.6308 7.1516 25.2654C7.00022 24.8999 6.96062 24.4978 7.03779 24.1098C7.11496 23.7219 7.30544 23.3655 7.58514 23.0858C7.86485 22.8061 8.22122 22.6156 8.60918 22.5384C8.99714 22.4613 9.39927 22.5009 9.76472 22.6522C10.1302 22.8036 10.4425 23.06 10.6623 23.3889C10.8821 23.7178 10.9994 24.1044 10.9994 24.5C10.9988 25.0303 10.7879 25.5387 10.413 25.9136C10.038 26.2886 9.52963 26.4995 8.99936 26.5ZM22.9994 11.5H25.3394L27.4834 16.5H22.9994V11.5ZM22.9994 26.5C22.6038 26.5 22.2171 26.3827 21.8882 26.1629C21.5593 25.9432 21.303 25.6308 21.1516 25.2654C21.0002 24.8999 20.9606 24.4978 21.0378 24.1098C21.115 23.7219 21.3054 23.3655 21.5851 23.0858C21.8648 22.8061 22.2212 22.6156 22.6092 22.5384C22.9971 22.4613 23.3993 22.5009 23.7647 22.6522C24.1302 22.8036 24.4425 23.06 24.6623 23.3889C24.8821 23.7178 24.9994 24.1044 24.9994 24.5C24.9988 25.0303 24.7879 25.5387 24.413 25.9136C24.038 26.2886 23.5296 26.4995 22.9994 26.5ZM27.9994 23.5H26.8574C26.6371 22.6434 26.1388 21.8842 25.4406 21.3413C24.7424 20.7983 23.8838 20.5025 22.9994 20.5V18.5H27.9994V23.5Z" fill="black"/>
</svg>
