<svg width="48" height="38" viewBox="0 0 48 38" fill="none" xmlns="http://www.w3.org/2000/svg">
<circle cx="32" cy="21.5" r="16" fill="#FEF4F1"/>
<path d="M4.66406 15.167V19.167C4.66406 24.195 4.66406 26.7097 6.22673 28.271C7.78806 29.8337 10.3027 29.8337 15.3307 29.8337H16.6641C21.6921 29.8337 24.2067 29.8337 25.7681 28.271C27.3307 26.7097 27.3307 24.195 27.3307 19.167V15.167" stroke="black" stroke-width="1.5"/>
<path d="M12.6628 3.16699H19.3294L20.1988 11.8563C20.256 12.4427 20.19 13.0345 20.0048 13.5938C19.8197 14.1531 19.5196 14.6675 19.1237 15.1039C18.7279 15.5402 18.2452 15.8889 17.7065 16.1276C17.1679 16.3662 16.5852 16.4895 15.9961 16.4895C15.407 16.4895 14.8243 16.3662 14.2857 16.1276C13.747 15.8889 13.2643 15.5402 12.8685 15.1039C12.4726 14.6675 12.1725 14.1531 11.9874 13.5938C11.8022 13.0345 11.7362 12.4427 11.7934 11.8563L12.6628 3.16699Z" stroke="black" stroke-width="1.5"/>
<path d="M4.43743 7.63499C4.67476 6.44833 4.79343 5.85499 5.03476 5.37366C5.28622 4.87238 5.64028 4.42957 6.07396 4.07399C6.50764 3.71841 7.01125 3.458 7.55209 3.30966C8.07209 3.16699 8.67743 3.16699 9.88809 3.16699H12.6641L11.6974 12.827C11.6464 13.3798 11.4831 13.9164 11.2175 14.404C10.9519 14.8915 10.5896 15.3197 10.1527 15.6624C9.71591 16.005 9.21374 16.2549 8.67697 16.3967C8.1402 16.5385 7.58014 16.5693 7.03106 16.4872C6.48198 16.4051 5.95544 16.2117 5.48368 15.919C5.01192 15.6263 4.60485 15.2404 4.28741 14.7849C3.96997 14.3294 3.74883 13.814 3.63752 13.2701C3.52622 12.7261 3.52709 12.1652 3.64009 11.6217L4.43743 7.63499ZM27.5574 7.63499C27.3201 6.44833 27.2014 5.85499 26.9601 5.37366C26.7086 4.87238 26.3546 4.42957 25.9209 4.07399C25.4872 3.71841 24.9836 3.458 24.4428 3.30966C23.9228 3.16699 23.3174 3.16699 22.1068 3.16699H19.3308L20.2974 12.827C20.3484 13.3798 20.5117 13.9164 20.7774 14.404C21.043 14.8915 21.4053 15.3197 21.8421 15.6624C22.2789 16.005 22.7811 16.2549 23.3179 16.3967C23.8546 16.5385 24.4147 16.5693 24.9638 16.4872C25.5129 16.4051 26.0394 16.2117 26.5112 15.919C26.9829 15.6263 27.39 15.2404 27.7074 14.7849C28.0249 14.3294 28.246 13.814 28.3573 13.2701C28.4686 12.7261 28.4678 12.1652 28.3548 11.6217L27.5574 7.63499Z" stroke="black" stroke-width="1.5"/>
<path d="M12.6641 29.1673V25.1673C12.6641 23.9207 12.6641 23.298 12.9321 22.834C13.1076 22.53 13.36 22.2775 13.6641 22.102C14.1281 21.834 14.7507 21.834 15.9974 21.834C17.2441 21.834 17.8667 21.834 18.3307 22.102C18.6347 22.2775 18.8872 22.53 19.0627 22.834C19.3307 23.298 19.3307 23.9207 19.3307 25.1673V29.1673" stroke="black" stroke-width="1.5" stroke-linecap="round"/>
</svg>
